# xmcd
#
# Track frame offsets:
#	150
#	31843
#	56605
#	85064
#	125387
#	166100
#
# Disc length: 2956 seconds
#
# Revision: 0
# Processed by: cddbd v1.5.2PL0 Copyright (c) Steve Scherf et al.
# Submitted via: audiograbber 1.83.01
#
DISCID=3d0b8a06
DTITLE=Grateful Dead - 93-01-25 Oakland Coliseum Arena, Oakland CA
DYEAR=1900
DGENRE=
TTITLE0=China Cat Sunflower
TTITLE1=I Know You Rider
TTITLE2=Way To Go Home
TTITLE3=Corinna
TTITLE4=Playing In The Band Reprise
TTITLE5=Uncle John's Band
EXTD=
EXTT0=
EXTT1=
EXTT2=
EXTT3=
EXTT4=
EXTT5=
PLAYORDER=
